inDegrees=yes
name=ik_data_arm_r
DataType=double
version=3
OpenSimVersion=4.5
endheader
time	pelvis_tilt	pelvis_list	pelvis_rotation	pelvis_tx	pelvis_ty	pelvis_tz	hip_flexion_r	hip_adduction_r	hip_rotation_r	knee_angle_r	knee_angle_r_beta	ankle_angle_r	subtalar_angle_r	mtp_angle_r	hip_flexion_l	hip_adduction_l	hip_rotation_l	knee_angle_l	knee_angle_l_beta	ankle_angle_l	subtalar_angle_l	mtp_angle_l	lumbar_extension	lumbar_bending	lumbar_rotation	arm_flex_r	arm_add_r	arm_rot_r	elbow_flex_r	pro_sup_r	wrist_flex_r	wrist_dev_r	arm_flex_l	arm_add_l	arm_rot_l	elbow_flex_l	pro_sup_l	wrist_flex_l	wrist_dev_l
50	-0.381052312912962	1.446481760659458	-0.0008861460249473972	0	0.9399999999999999	0	43.4847352606593	-10.13206934026035	0	60.54343486537699	1.056682278867558	-5.018315282928027	0	0	43.4847352606593	-10.13206934026035	0	60.54343486537699	1.056682278867558	-5.018315282928027	0	0	0.5755093054620779	0.3818542004074404	-2.152071449003088	-0.1245117598535522	-3.222474396347232	-0.1594827064727474	0.2286864009090258	45.01245047990606	0	-3.711585254927961e-36	0	-11.77246005226603	0	75.48130754050558	45.01245047990606	0	-3.711585254927961e-36
51	-0.3783915238953197	0.9130884037836589	-0.1975545399849613	0	0.9399999999999999	0	43.4851278563097	-10.13195005826264	0	60.54332438050066	1.056680350542693	-5.018293720946096	0	0	43.4851278563097	-10.13195005826264	0	60.54332438050066	1.056680350542693	-5.018293720946096	0	0	0.5829963145264191	-0.1534312070334324	-2.342712899867621	-0.09554153837986441	-3.79505677698726	-0.3526669708518489	1.799284233896033	45.0124415803349	0	5.38806921148701e-36	0	-11.77288850396885	0	75.48118292809372	45.0124415803349	0	5.38806921148701e-36
52	0.2398732599730829	0.3029635248196441	-0.8568685349062952	0	0.9399999999999999	0	43.48942987258358	-10.13106911594442	0	60.54177809787603	1.056653362819727	-5.01814840593824	0	0	43.48942987258358	-10.13106911594442	0	60.54177809787603	1.056653362819727	-5.01814840593824	0	0	1.211606858902541	-0.7649260726380492	-2.993807951215965	0.5570884637020547	-4.438552565395861	-1.05213497995806	0.104143343294709	45.01237045719151	0	0	0	-11.778504626514	0	75.47981715249313	45.01237045719151	0	0
53	0.523798111510368	-0.5754216165641751	-1.957339629911597	0	0.9399999999999999	0	43.49705706373432	-10.12952535013051	0	60.53902673153289	1.05660534241811	-5.017894662225514	0	0	43.49705706373432	-10.12952535013051	0	60.53902673153289	1.05660534241811	-5.017894662225514	0	0	1.509809206659971	-1.658757011972135	-4.070104555149134	0.8891584230148084	-5.427634117740149	-2.1497552138309	0.03772087767816727	45.01224547430763	0	1.328261611114721e-67	0	-11.7884992086626	0	75.47739571097665	45.01224547430763	0	1.328261611114721e-67
54	0.7006553782043173	-1.630047377703863	-3.328453354902844	0	0.9399999999999999	0	43.50498488964431	-10.12793243325232	0	60.53616719592866	1.056555434106738	-5.017633491073997	0	0	43.50498488964431	-10.12793243325232	0	60.53616719592866	1.056555434106738	-5.017633491073997	0	0	1.703415689617031	-2.740147333749933	-5.407743377439433	1.121964045107747	-6.638047729473716	-3.494768845096019	0.04815448788464674	45.01211627142295	0	0	0	-11.79890869230731	0	75.47487881951679	45.01211627142295	0	0
55	0.6343010348815598	-2.651455312429569	-4.847374571933091	0	0.9399999999999999	0	43.51312209544842	-10.12630905819401	0	60.53323343238466	1.05650423027342	-5.017367984013783	0	0	43.51312209544842	-10.12630905819401	0	60.53323343238466	1.05650423027342	-5.017367984013783	0	0	1.64687462322234	-3.809060579782561	-6.879144876782	1.09702596922792	-7.873026348982156	-4.940229405942012	0.1794329001804881	45.01198435552201	0	-3.939855022715748e-51	0	-11.80961338434884	0	75.47229544938817	45.01198435552201	0	-3.939855022715748e-51
56	0.09017720367892215	-3.741716251503875	-6.54663048549	0	0.9399999999999999	0	43.51945935693584	-10.12504933189369	0	60.53095386823776	1.056464444373547	-5.017162257831468	0	0	43.51945935693584	-10.12504933189369	0	60.53095386823776	1.056464444373547	-5.017162257831468	0	0	1.106735613469298	-5.005259504756808	-8.48415901892573	0.5937476063566423	-9.336655065369577	-6.432405307287022	3.143723089071896	45.01188188292237	0	-5.38806921148701e-36	0	-11.81795553153674	0	75.47028351773696	45.01188188292237	0	-5.38806921148701e-36
57	-0.09834786416628517	-4.845850901831401	-8.381274816959685	0	0.9399999999999999	0	43.52533260828162	-10.12388706801982	0	60.52884238262259	1.056427591997454	-5.016972734878697	0	0	43.52533260828162	-10.12388706801982	0	60.52884238262259	1.056427591997454	-5.016972734878697	0	0	0.9144222064375739	-6.183056147608813	-10.25116723891855	0.4210110178060739	-10.72697741992869	-8.130915675974679	5.233946212846257	45.01178723081296	0	0	0	-11.82569641500132	0	75.46841889583922	45.01178723081296	0	0
58	-0.4282649081830228	-5.9227734176524	-9.992096401500351	0	0.9399999999999999	0	43.53139379716365	-10.12269576354448	0	60.52666186068429	1.056389534710218	-5.016778899866338	0	0	43.53139379716365	-10.12269576354448	0	60.52666186068429	1.056389534710218	-5.016778899866338	0	0	0.5951834823543098	-7.348382000970369	-11.77680595244724	0.1452114574463148	-12.13275289410411	-9.563647144684783	7.603377072248261	45.01169005125583	0	0	0	-11.83370135921084	0	75.46649460356393	45.01169005125583	0	0
59	-0.837998847087181	-6.66112869133958	-12.24904864596242	0	0.9399999999999999	0	43.5379142818492	-10.12141717377552	0	60.52431930390156	1.056348649381445	-5.016571041035158	0	0	43.5379142818492	-10.12141717377552	0	60.52431930390156	1.056348649381445	-5.016571041035158	0	0	0.06933922823033356	-8.226837606851969	-13.90921207647394	-0.4678681425744879	-13.32064994046251	-11.50829950192633	11.675176430762	45.01158568616565	0	0	0	-11.8423174892845	0	75.46442449402917	45.01158568616565	0	0
60	-1.269329564461306	-7.492565755068733	-14.36785249566746	0	0.9399999999999999	0	43.54444702473695	-10.12013796030706	0	60.52197718280229	1.056307771656782	-5.016363208409435	0	0	43.54444702473695	-10.12013796030706	0	60.52197718280229	1.056307771656782	-5.016363208409435	0	0	-0.4376050562551433	-9.198159467675072	-15.90407502983552	-1.015905205899568	-14.6062944166911	-13.32569600597251	15.70775500846974	45.01148122597564	0	0	0	-11.85095124981111	0	75.46235049261057	45.01148122597564	0	0
61	-1.499709495334323	-8.308125410844452	-16.06443631535015	0	0.9399999999999999	0	43.55070028972517	-10.11892135415614	0	60.51973463163134	1.056268631755205	-5.016165959296907	0	0	43.55070028972517	-10.11892135415614	0	60.51973463163134	1.056268631755205	-5.016165959296907	0	0	-0.6891139797131803	-10.09237663376447	-17.52251711003608	-1.270081759553997	-15.71941661718694	-14.84248670762954	19.34006070319091	45.01138171983898	0	0	0	-11.85923142670061	0	75.46036521498753	45.01138171983898	0	0
62	-1.768527102566817	-9.154813656955413	-18.10376409152343	0	0.9399999999999999	0	43.5568963996944	-10.11772316559228	0	60.51751254414951	1.056229849012379	-5.015972091234976	0	0	43.5568963996944	-10.11772316559228	0	60.51751254414951	1.056229849012379	-5.015972091234976	0	0	-1.018578772319526	-11.046206224754	-19.45716760407242	-1.633945728628803	-16.94569166716341	-16.62640715822206	23.08363270707332	45.01128356974199	0	0	0	-11.86744995376516	0	75.45839807910637	45.01128356974199	0	0
63	-1.94150646071903	-9.727667586796951	-20.42812982048074	0	0.9399999999999999	0	43.5632562506029	-10.1165020259092	0	60.51523038547543	1.056190017829464	-5.015774964901419	0	0	43.5632562506029	-10.1165020259092	0	60.51523038547543	1.056190017829464	-5.015774964901419	0	0	-1.381281925526028	-11.73014365463781	-21.65359217602975	-2.16158997138153	-17.93111497636859	-18.59886926182554	27.44045550251118	45.0111833635258	0	0	0	-11.87590339822842	0	75.45637895416128	45.0111833635258	0	0
64	-2.474971937961502	-10.50051327394199	-22.59611629305587	0	0.9399999999999999	0	43.56350302428893	-10.11643225388095	0	60.5151608544146	1.05618880428352	-5.01576264442347	0	0	43.56350302428893	-10.11643225388095	0	60.5151608544146	1.05618880428352	-5.01576264442347	0	0	-1.983749572194268	-12.72184608219321	-23.65289658758381	-2.762227891492438	-19.2898613919829	-20.34914377235345	31.63863587177636	45.01117806432078	0	0	0	-11.87617854456705	0	75.45630062304994	45.01117806432078	0	0
65	-2.637704746961678	-11.26316524192222	-24.94599097426495	0	0.9399999999999999	0	43.56371123706827	-10.11637346263635	0	60.51510214143455	1.056187779548704	-5.015752266525071	0	0	43.56371123706827	-10.11637346263635	0	60.51510214143455	1.056187779548704	-5.015752266525071	0	0	-2.263788551562707	-13.58252090748963	-25.88829046678958	-3.147393095783432	-20.39614461119717	-22.37242799556395	36.27703077502177	45.0111735978674	0	0	0	-11.87641084082268	0	75.4562345319289	45.0111735978674	0	0
66	-2.701233016283136	-11.96272474090641	-27.38884070083774	0	0.9399999999999999	0	43.56389147129413	-10.11632265898864	0	60.51505125918091	1.056186891485847	-5.015743302240883	0	0	43.56389147129413	-10.11632265898864	0	60.51505125918091	1.056186891485847	-5.015743302240883	0	0	-2.490461122226489	-14.35770219806258	-28.21190184214059	-3.531396674704914	-21.41360823888188	-24.4587660270127	41.3385808899463	45.01116973693001	0	0	0	-11.87661209729762	0	75.4561773217376	45.01116973693001	0	0
67	-2.646230620058076	-12.57566011479266	-28.85722847273345	0	0.9399999999999999	0	43.56405063276384	-10.11627782236368	0	60.51500630939633	1.056186106964108	-5.015735392074967	0	0	43.56405063276384	-10.11627782236368	0	60.51500630939633	1.056186106964108	-5.015735392074967	0	0	-2.449396175514629	-14.96143990891903	-29.65269872879519	-3.543492200078692	-22.0747189872076	-25.83175361660814	43.39502155698786	45.01116632904301	0	0	0	-11.87678987614491	0	75.45612680047208	45.01116632904301	0	0
68	-2.848229075352808	-13.39968647291046	-29.61256791050317	0	0.9399999999999999	0	43.5694771248856	-10.11524991342263	0	60.51305379674462	1.056152029189649	-5.015570192920224	0	0	43.5694771248856	-10.11524991342263	0	60.51305379674462	1.056152029189649	-5.015570192920224	0	0	-2.387499905320903	-15.83101611673475	-30.41529411466217	-3.236558278737173	-22.96904213299439	-26.69688184507464	44.2764922991793	45.01108169493901	0	-2.694034605743505e-36	0	-11.8840317242476	0	75.45440399039617	45.01108169493901	0	-2.694034605743505e-36
